<svg width="100" height="100" viewBox="0 0 100 100" fill="none" xmlns="http://www.w3.org/2000/svg">
<path d="M75.5001 55.1336C75.5001 68.9316 64.0925 80.1336 50.0001 80.1336C35.9076 80.1336 24.5001 68.9316 24.5001 55.1336C24.5001 41.3356 35.9076 30.1336 50.0001 30.1336C64.0925 30.1336 75.5001 41.3356 75.5001 55.1336Z" fill="white" stroke="white"/>
<path d="M42.7884 32.9983C27.3345 26.9206 2.2853 21.9336 25.7193 50.607" stroke="white"/>
<path d="M57.2116 32.9983C72.6655 26.9206 97.7148 21.9336 74.2808 50.607" stroke="white"/>
<path d="M46.6039 64.6284C48.6803 64.5633 50.4729 66.3111 50.5447 68.6016C50.6166 70.8921 48.937 72.7488 46.8606 72.8139C44.7842 72.879 42.9916 71.1312 42.9198 68.8407C42.8479 66.5502 44.5275 64.6935 46.6039 64.6284Z" fill="black" stroke="black"/>
<rect x="47.8804" y="69.7172" width="2.06316" height="12.5594" transform="rotate(-91.7961 47.8804 69.7172)" fill="black" stroke="black"/>
<path d="M58.8186 72.4945L58.7382 69.9278L60.4509 69.8741L60.5314 72.4408L58.8186 72.4945Z" fill="black" stroke="black"/>
<rect x="52.7107" y="72.686" width="2.56799" height="1.71358" transform="rotate(-91.7961 52.7107 72.686)" fill="black" stroke="black"/>
<path d="M44.4612 53.3046C44.4612 55.4355 42.7952 57.1339 40.7753 57.1339C38.7554 57.1339 37.0894 55.4355 37.0894 53.3046C37.0894 51.1738 38.7554 49.4754 40.7753 49.4754C42.7952 49.4754 44.4612 51.1738 44.4612 53.3046Z" fill="black" stroke="black"/>
<path d="M39.4724 47.225C40.1875 48.2659 39.7814 50.0745 38.2125 51.2275C36.6435 52.3805 34.8585 52.1821 34.1434 51.1412C33.7631 50.5877 33.5539 49.6485 33.6539 48.679C33.7533 47.7154 34.1458 46.8305 34.8407 46.3198C35.5356 45.8091 36.4728 45.7169 37.3853 45.9368C38.3034 46.1581 39.0921 46.6714 39.4724 47.225Z" fill="black" stroke="black"/>
<path d="M41.9525 47.225C41.2374 48.2659 41.6435 50.0745 43.2125 51.2275C44.7814 52.3805 46.5664 52.1821 47.2816 51.1412C47.6619 50.5877 47.871 49.6485 47.771 48.679C47.6717 47.7154 47.2791 46.8305 46.5842 46.3198C45.8893 45.8091 44.9521 45.7169 44.0396 45.9368C43.1215 46.1581 42.3328 46.6714 41.9525 47.225Z" fill="black" stroke="black"/>
<path d="M66.9412 49.818C66.9412 52.0623 64.9756 53.9417 62.4743 53.9417C59.9729 53.9417 58.0073 52.0623 58.0073 49.818C58.0073 47.5737 59.9729 45.6943 62.4743 45.6943C64.9756 45.6943 66.9412 47.5737 66.9412 49.818Z" fill="black" stroke="black"/>
<path d="M65.9174 50.0592L68.1699 51.3905L65.5398 51.8087L65.9174 50.0592Z" fill="black" stroke="black"/>
<path d="M58.2039 54.7907C58.2038 54.7907 58.2043 54.7899 58.2055 54.7882C58.2045 54.7898 58.2039 54.7907 58.2039 54.7907ZM59.2357 54.5454C58.9869 54.5444 58.7617 54.5335 58.573 54.5132C58.7286 54.4209 58.9196 54.3222 59.1359 54.2222C59.8057 53.9124 60.6186 53.6342 61.1126 53.5202C61.59 53.4101 62.0226 53.407 62.327 53.4706C62.5506 53.5173 62.6315 53.5789 62.6573 53.6038C62.6469 53.637 62.6063 53.7267 62.432 53.8651C62.1948 54.0537 61.8106 54.2389 61.3332 54.349C60.8478 54.461 59.9897 54.5484 59.2357 54.5454ZM58.1132 54.4152C58.1106 54.4138 58.1095 54.4131 58.1096 54.4131C58.1097 54.4131 58.111 54.4138 58.1132 54.4152Z" fill="black" stroke="black"/>
<path d="M59.1559 56.0013C59.1559 56.0013 59.156 56.0006 59.1562 55.9993C59.1561 56.0006 59.1559 56.0013 59.1559 56.0013ZM60.0178 55.4319C59.772 55.5261 59.5469 55.6 59.3572 55.6486C59.4648 55.5016 59.6076 55.3324 59.7766 55.1511C60.2659 54.6264 60.8996 54.08 61.3065 53.7994C61.6984 53.529 62.0924 53.373 62.3957 53.3234C62.6487 53.2819 62.7449 53.3229 62.7689 53.3356C62.7749 53.3605 62.789 53.4582 62.6728 53.6714C62.5335 53.927 62.2584 54.2326 61.8665 54.5029C61.4673 54.7783 60.7136 55.1653 60.0178 55.4319ZM58.9361 55.7121C58.9338 55.7118 58.9327 55.7116 58.9328 55.7115C58.9328 55.7115 58.934 55.7117 58.9361 55.7121Z" fill="black" stroke="black"/>
<path d="M60.6082 56.6586C60.6082 56.6586 60.6082 56.658 60.6083 56.6569L60.6082 56.6586ZM61.3901 56.0011C61.1531 56.1273 60.9352 56.2295 60.7511 56.3005C60.8378 56.1394 60.9582 55.9503 61.1046 55.7448C61.5167 55.1664 62.069 54.5493 62.4328 54.223C62.7827 53.909 63.1502 53.7081 63.4424 53.623C63.6998 53.548 63.7991 53.5841 63.8197 53.5931C63.8286 53.6126 63.8636 53.7063 63.7736 53.9429C63.6715 54.2115 63.4422 54.5459 63.0922 54.8599C62.7354 55.1799 62.0425 55.6535 61.3901 56.0011ZM60.3596 56.4075C60.3575 56.4075 60.3565 56.4074 60.3566 56.4074C60.3566 56.4073 60.3577 56.4074 60.3596 56.4075Z" fill="black" stroke="black"/>
<path d="M56.8401 54.066C56.8401 54.066 56.8406 54.0652 56.8417 54.0635C56.8407 54.0651 56.8402 54.066 56.8401 54.066ZM57.8719 53.8207C57.6231 53.8197 57.3979 53.8088 57.2092 53.7885C57.3648 53.6962 57.5559 53.5975 57.7721 53.4975C58.442 53.1877 59.2548 52.9095 59.7488 52.7955C60.2262 52.6854 60.6588 52.6823 60.9632 52.7459C61.1868 52.7926 61.2677 52.8542 61.2935 52.8791C61.2832 52.9123 61.2425 53.002 61.0683 53.1404C60.831 53.329 60.4468 53.5142 59.9694 53.6243C59.4841 53.7363 58.6259 53.8237 57.8719 53.8207ZM56.7494 53.6905C56.7469 53.6891 56.7457 53.6884 56.7458 53.6884C56.7459 53.6884 56.7472 53.6891 56.7494 53.6905Z" fill="black" stroke="black"/>
<ellipse cx="29.9493" cy="37.4901" rx="12.3267" ry="7.7042" fill="white"/>
<ellipse cx="25.3267" cy="42.1126" rx="4.62252" ry="6.16336" fill="white"/>
<ellipse cx="23.7859" cy="33.638" rx="7.7042" ry="5.39294" fill="white"/>
<ellipse cx="12.3267" cy="7.7042" rx="12.3267" ry="7.7042" transform="matrix(-1 0 0 1 82.3379 29.7859)" fill="white"/>
<ellipse cx="4.62252" cy="6.16336" rx="4.62252" ry="6.16336" transform="matrix(-1 0 0 1 79.2562 35.9492)" fill="white"/>
<ellipse cx="7.7042" cy="5.39294" rx="7.7042" ry="5.39294" transform="matrix(-1 0 0 1 83.8787 28.2451)" fill="white"/>
</svg>
