<svg width="450" height="250" viewBox="0 0 450 250" fill="none" xmlns="http://www.w3.org/2000/svg">
<path d="M70.2222 49.8889H74.963V54.6296H70.2222V49.8889ZM74.963 49.8889H79.7037V54.6296H74.963V49.8889ZM79.7037 49.8889H84.4444V54.6296H79.7037V49.8889ZM84.4444 49.8889H89.1852V54.6296H84.4444V49.8889ZM89.1852 49.8889H93.9259V54.6296H89.1852V49.8889ZM93.9259 49.8889H98.6667V54.6296H93.9259V49.8889ZM93.9259 54.6296H98.6667V59.3704H93.9259V54.6296ZM98.6667 54.6296H103.407V59.3704H98.6667V54.6296ZM89.1852 54.6296H93.9259V59.3704H89.1852V54.6296ZM84.4444 54.6296H89.1852V59.3704H84.4444V54.6296ZM79.7037 54.6296H84.4444V59.3704H79.7037V54.6296ZM74.963 54.6296H79.7037V59.3704H74.963V54.6296ZM70.2222 54.6296H74.963V59.3704H70.2222V54.6296ZM65.4815 59.3704H70.2222V64.1111H65.4815V59.3704ZM65.4815 54.6296H70.2222V59.3704H65.4815V54.6296ZM60.7407 59.3704H65.4815V64.1111H60.7407V59.3704ZM70.2222 59.3704H74.963V64.1111H70.2222V59.3704ZM74.963 59.3704H79.7037V64.1111H74.963V59.3704ZM79.7037 59.3704H84.4444V64.1111H79.7037V59.3704ZM84.4444 59.3704H89.1852V64.1111H84.4444V59.3704ZM89.1852 59.3704H93.9259V64.1111H89.1852V59.3704ZM93.9259 59.3704H98.6667V64.1111H93.9259V59.3704ZM98.6667 59.3704H103.407V64.1111H98.6667V59.3704ZM103.407 59.3704H108.148V64.1111H103.407V59.3704ZM103.407 64.1111H108.148V68.8519H103.407V64.1111ZM98.6667 64.1111H103.407V68.8519H98.6667V64.1111ZM93.9259 64.1111H98.6667V68.8519H93.9259V64.1111ZM89.1852 64.1111H93.9259V68.8519H89.1852V64.1111ZM93.9259 68.8519H98.6667V73.5926H93.9259V68.8519ZM103.407 68.8519H108.148V73.5926H103.407V68.8519ZM98.6667 68.8519H103.407V73.5926H98.6667V68.8519ZM103.407 97.2963H108.148V102.037H103.407V97.2963ZM103.407 102.037H108.148V106.778H103.407V102.037ZM103.407 106.778H108.148V111.519H103.407V106.778ZM98.6667 106.778H103.407V111.519H98.6667V106.778ZM98.6667 102.037H103.407V106.778H98.6667V102.037ZM98.6667 97.2963H103.407V102.037H98.6667V97.2963ZM93.9259 97.2963H98.6667V102.037H93.9259V97.2963ZM93.9259 102.037H98.6667V106.778H93.9259V102.037ZM89.1852 102.037H93.9259V106.778H89.1852V102.037ZM93.9259 106.778H98.6667V111.519H93.9259V106.778ZM98.6667 111.519H103.407V116.259H98.6667V111.519ZM93.9259 111.519H98.6667V116.259H93.9259V111.519ZM89.1852 106.778H93.9259V111.519H89.1852V106.778ZM89.1852 111.519H93.9259V116.259H89.1852V111.519ZM93.9259 116.259H98.6667V121H93.9259V116.259ZM89.1852 116.259H93.9259V121H89.1852V116.259ZM84.4444 116.259H89.1852V121H84.4444V116.259ZM79.7037 116.259H84.4444V121H79.7037V116.259ZM74.963 116.259H79.7037V121H74.963V116.259ZM70.2222 116.259H74.963V121H70.2222V116.259ZM70.2222 111.519H74.963V116.259H70.2222V111.519ZM74.963 111.519H79.7037V116.259H74.963V111.519ZM74.963 106.778H79.7037V111.519H74.963V106.778ZM79.7037 106.778H84.4444V111.519H79.7037V106.778ZM84.4444 106.778H89.1852V111.519H84.4444V106.778ZM84.4444 111.519H89.1852V116.259H84.4444V111.519ZM79.7037 111.519H84.4444V116.259H79.7037V111.519ZM65.4815 111.519H70.2222V116.259H65.4815V111.519ZM70.2222 106.778H74.963V111.519H70.2222V106.778ZM74.963 102.037H79.7037V106.778H74.963V102.037ZM70.2222 102.037H74.963V106.778H70.2222V102.037ZM65.4815 102.037H70.2222V106.778H65.4815V102.037ZM65.4815 106.778H70.2222V111.519H65.4815V106.778ZM60.7407 106.778H65.4815V111.519H60.7407V106.778ZM60.7407 102.037H65.4815V106.778H60.7407V102.037ZM60.7407 97.2963H65.4815V102.037H60.7407V97.2963ZM60.7407 92.5556H65.4815V97.2963H60.7407V92.5556ZM60.7407 87.8148H65.4815V92.5556H60.7407V87.8148ZM60.7407 83.0741H65.4815V87.8148H60.7407V83.0741ZM60.7407 78.3333H65.4815V83.0741H60.7407V78.3333ZM60.7407 73.5926H65.4815V78.3333H60.7407V73.5926ZM60.7407 68.8519H65.4815V73.5926H60.7407V68.8519ZM60.7407 64.1111H65.4815V68.8519H60.7407V64.1111ZM65.4815 64.1111H70.2222V68.8519H65.4815V64.1111ZM70.2222 64.1111H74.963V68.8519H70.2222V64.1111ZM74.963 64.1111H79.7037V68.8519H74.963V64.1111ZM70.2222 68.8519H74.963V73.5926H70.2222V68.8519ZM70.2222 73.5926H74.963V78.3333H70.2222V73.5926ZM70.2222 78.3333H74.963V83.0741H70.2222V78.3333ZM70.2222 83.0741H74.963V87.8148H70.2222V83.0741ZM70.2222 87.8148H74.963V92.5556H70.2222V87.8148ZM70.2222 92.5556H74.963V97.2963H70.2222V92.5556ZM70.2222 97.2963H74.963V102.037H70.2222V97.2963ZM65.4815 97.2963H70.2222V102.037H65.4815V97.2963ZM65.4815 92.5556H70.2222V97.2963H65.4815V92.5556ZM65.4815 87.8148H70.2222V92.5556H65.4815V87.8148ZM65.4815 83.0741H70.2222V87.8148H65.4815V83.0741ZM65.4815 78.3333H70.2222V83.0741H65.4815V78.3333ZM65.4815 73.5926H70.2222V78.3333H65.4815V73.5926ZM65.4815 68.8519H70.2222V73.5926H65.4815V68.8519ZM155.542 121H150.801V116.259H155.542V121ZM146.06 121H141.319V116.259H146.06V121ZM141.319 121H136.579V116.259H141.319V121ZM136.579 121H131.838V116.259H136.579V121ZM131.838 121H127.097V116.259H131.838V121ZM127.097 116.259H122.356V111.519H127.097V116.259ZM131.838 116.259H127.097V111.519H131.838V116.259ZM136.579 116.259H131.838V111.519H136.579V116.259ZM141.319 116.259H136.579V111.519H141.319V116.259ZM146.06 116.259H141.319V111.519H146.06V116.259ZM150.801 116.259H146.06V111.519H150.801V116.259ZM155.542 116.259H150.801V111.519H155.542V116.259ZM160.282 116.259H155.542V111.519H160.282V116.259ZM160.282 111.519H155.542V106.778H160.282V111.519ZM155.542 111.519H150.801V106.778H155.542V111.519ZM165.023 111.519H160.282V106.778H165.023V111.519ZM165.023 106.778H160.282V102.037H165.023V106.778ZM165.023 102.037H160.282V97.2963H165.023V102.037ZM160.282 102.037H155.542V97.2963H160.282V102.037ZM155.542 102.037H150.801V97.2963H155.542V102.037ZM155.542 106.778H150.801V102.037H155.542V106.778ZM160.282 106.778H155.542V102.037H160.282V106.778ZM160.282 97.2963H155.542V92.5556H160.282V97.2963ZM160.282 92.5556H155.542V87.8148H160.282V92.5556ZM160.282 87.8148H155.542V83.0741H160.282V87.8148ZM165.023 87.8148H160.282V83.0741H165.023V87.8148ZM165.023 83.0741H160.282V78.3333H165.023V83.0741ZM165.023 92.5556H160.282V87.8148H165.023V92.5556ZM165.023 97.2963H160.282V92.5556H165.023V97.2963ZM155.542 97.2963H150.801V92.5556H155.542V97.2963ZM155.542 92.5556H150.801V87.8148H155.542V92.5556ZM155.542 87.8148H150.801V83.0741H155.542V87.8148ZM155.542 83.0741H150.801V78.3333H155.542V83.0741ZM160.282 83.0741H155.542V78.3333H160.282V83.0741ZM160.282 78.3333H155.542V73.5926H160.282V78.3333ZM155.542 78.3333H150.801V73.5926H155.542V78.3333ZM150.801 78.3333H146.06V73.5926H150.801V78.3333ZM150.801 83.0741H146.06V78.3333H150.801V83.0741ZM155.542 73.5926H150.801V68.8519H155.542V73.5926ZM150.801 73.5926H146.06V68.8519H150.801V73.5926ZM146.06 73.5926H141.319V68.8519H146.06V73.5926ZM141.319 73.5926H136.579V68.8519H141.319V73.5926ZM136.579 73.5926H131.838V68.8519H136.579V73.5926ZM131.838 73.5926H127.097V68.8519H131.838V73.5926ZM136.579 78.3333H131.838V73.5926H136.579V78.3333ZM141.319 78.3333H136.579V73.5926H141.319V78.3333ZM146.06 78.3333H141.319V73.5926H146.06V78.3333ZM131.838 78.3333H127.097V73.5926H131.838V78.3333ZM127.097 78.3333H122.356V73.5926H127.097V78.3333ZM131.838 83.0741H127.097V78.3333H131.838V83.0741ZM136.579 83.0741H131.838V78.3333H136.579V83.0741ZM127.097 83.0741H122.356V78.3333H127.097V83.0741ZM122.356 83.0741H117.616V78.3333H122.356V83.0741ZM127.097 106.778H122.356V102.037H127.097V106.778ZM122.356 106.778H117.616V102.037H122.356V106.778ZM122.356 111.519H117.616V106.778H122.356V111.519ZM131.838 106.778H127.097V102.037H131.838V106.778ZM131.838 111.519H127.097V106.778H131.838V111.519ZM127.097 111.519H122.356V106.778H127.097V111.519ZM146.06 83.0741H141.319V78.3333H146.06V83.0741ZM141.319 83.0741H136.579V78.3333H141.319V83.0741ZM127.097 102.037H122.356V97.2963H127.097V102.037ZM131.838 102.037H127.097V97.2963H131.838V102.037ZM146.06 97.2963H141.319V92.5556H146.06V97.2963ZM141.319 97.2963H136.579V92.5556H141.319V97.2963ZM136.579 97.2963H131.838V92.5556H136.579V97.2963ZM131.838 97.2963H127.097V92.5556H131.838V97.2963ZM150.801 97.2963H146.06V92.5556H150.801V97.2963ZM160.282 111.519H165.023V116.259H160.282V111.519ZM160.282 116.259H165.023V121H160.282V116.259ZM155.542 116.259H160.282V121H155.542V116.259ZM146.06 87.8148H150.801V92.5556H146.06V87.8148ZM141.319 87.8148H146.06V92.5556H141.319V87.8148ZM136.579 87.8148H141.319V92.5556H136.579V87.8148ZM131.838 87.8148H136.579V92.5556H131.838V87.8148ZM127.097 87.8148H131.838V92.5556H127.097V87.8148ZM122.356 92.5556H127.097V97.2963H122.356V92.5556ZM117.616 97.2963H122.356V102.037H117.616V97.2963ZM131.838 106.778H136.579V111.519H131.838V106.778ZM136.579 106.778H141.319V111.519H136.579V106.778ZM141.319 106.778H146.06V111.519H141.319V106.778ZM146.06 106.778H150.801V111.519H146.06V106.778ZM193.454 54.6296H198.194V59.3704H193.454V54.6296ZM193.454 59.3704H198.194V64.1111H193.454V59.3704ZM188.713 59.3704H193.454V64.1111H188.713V59.3704ZM193.454 64.1111H198.194V68.8519H193.454V64.1111ZM188.713 64.1111H193.454V68.8519H188.713V64.1111ZM183.972 64.1111H188.713V68.8519H183.972V64.1111ZM183.972 68.8519H188.713V73.5926H183.972V68.8519ZM188.713 68.8519H193.454V73.5926H188.713V68.8519ZM193.454 68.8519H198.194V73.5926H193.454V68.8519ZM193.454 73.5926H198.194V78.3333H193.454V73.5926ZM188.713 73.5926H193.454V78.3333H188.713V73.5926ZM183.972 73.5926H188.713V78.3333H183.972V73.5926ZM179.231 73.5926H183.972V78.3333H179.231V73.5926ZM174.491 73.5926H179.231V78.3333H174.491V73.5926ZM174.491 78.3333H179.231V83.0741H174.491V78.3333ZM179.231 78.3333H183.972V83.0741H179.231V78.3333ZM183.972 78.3333H188.713V83.0741H183.972V78.3333ZM188.713 78.3333H193.454V83.0741H188.713V78.3333ZM193.454 78.3333H198.194V83.0741H193.454V78.3333ZM198.194 78.3333H202.935V83.0741H198.194V78.3333ZM202.935 78.3333H207.676V83.0741H202.935V78.3333ZM207.676 78.3333H212.417V83.0741H207.676V78.3333ZM207.676 73.5926H212.417V78.3333H207.676V73.5926ZM202.935 73.5926H207.676V78.3333H202.935V73.5926ZM198.194 73.5926H202.935V78.3333H198.194V73.5926ZM183.972 83.0741H188.713V87.8148H183.972V83.0741ZM188.713 83.0741H193.454V87.8148H188.713V83.0741ZM193.454 83.0741H198.194V87.8148H193.454V83.0741ZM193.454 87.8148H198.194V92.5556H193.454V87.8148ZM193.454 92.5556H198.194V97.2963H193.454V92.5556ZM193.454 97.2963H198.194V102.037H193.454V97.2963ZM193.454 102.037H198.194V106.778H193.454V102.037ZM188.713 102.037H193.454V106.778H188.713V102.037ZM188.713 97.2963H193.454V102.037H188.713V97.2963ZM188.713 92.5556H193.454V97.2963H188.713V92.5556ZM188.713 87.8148H193.454V92.5556H188.713V87.8148ZM183.972 87.8148H188.713V92.5556H183.972V87.8148ZM183.972 92.5556H188.713V97.2963H183.972V92.5556ZM183.972 97.2963H188.713V102.037H183.972V97.2963ZM183.972 102.037H188.713V106.778H183.972V102.037ZM183.972 106.778H188.713V111.519H183.972V106.778ZM188.713 106.778H193.454V111.519H188.713V106.778ZM193.454 106.778H198.194V111.519H193.454V106.778ZM198.194 106.778H202.935V111.519H198.194V106.778ZM198.194 111.519H202.935V116.259H198.194V111.519ZM193.454 111.519H198.194V116.259H193.454V111.519ZM188.713 111.519H193.454V116.259H188.713V111.519ZM202.935 111.519H207.676V116.259H202.935V111.519ZM207.676 111.519H212.417V116.259H207.676V111.519ZM207.676 116.259H212.417V121H207.676V116.259ZM202.935 116.259H207.676V121H202.935V116.259ZM198.194 116.259H202.935V121H198.194V116.259ZM193.454 116.259H198.194V121H193.454V116.259ZM65.4815 129.889H70.2222V134.63H65.4815V129.889ZM65.4815 134.63H70.2222V139.37H65.4815V134.63ZM65.4815 139.37H70.2222V144.111H65.4815V139.37ZM65.4815 144.111H70.2222V148.852H65.4815V144.111ZM65.4815 148.852H70.2222V153.593H65.4815V148.852ZM65.4815 153.593H70.2222V158.333H65.4815V153.593ZM65.4815 158.333H70.2222V163.074H65.4815V158.333ZM65.4815 163.074H70.2222V167.815H65.4815V163.074ZM65.4815 167.815H70.2222V172.556H65.4815V167.815ZM65.4815 172.556H70.2222V177.296H65.4815V172.556ZM65.4815 177.296H70.2222V182.037H65.4815V177.296ZM65.4815 182.037H70.2222V186.778H65.4815V182.037ZM65.4815 186.778H70.2222V191.519H65.4815V186.778ZM65.4815 191.519H70.2222V196.259H65.4815V191.519ZM65.4815 196.259H70.2222V201H65.4815V196.259ZM60.7407 196.259H65.4815V201H60.7407V196.259ZM60.7407 191.519H65.4815V196.259H60.7407V191.519ZM60.7407 186.778H65.4815V191.519H60.7407V186.778ZM60.7407 134.63H65.4815V139.37H60.7407V134.63ZM60.7407 129.889H65.4815V134.63H60.7407V129.889ZM60.7407 139.37H65.4815V144.111H60.7407V139.37ZM60.7407 144.111H65.4815V148.852H60.7407V144.111ZM60.7407 148.852H65.4815V153.593H60.7407V148.852ZM60.7407 153.593H65.4815V158.333H60.7407V153.593ZM60.7407 158.333H65.4815V163.074H60.7407V158.333ZM60.7407 163.074H65.4815V167.815H60.7407V163.074ZM60.7407 167.815H65.4815V172.556H60.7407V167.815ZM60.7407 172.556H65.4815V177.296H60.7407V172.556ZM60.7407 177.296H65.4815V182.037H60.7407V177.296ZM60.7407 182.037H65.4815V186.778H60.7407V182.037ZM70.2222 196.259H74.963V201H70.2222V196.259ZM70.2222 191.519H74.963V196.259H70.2222V191.519ZM70.2222 186.778H74.963V191.519H70.2222V186.778ZM70.2222 182.037H74.963V186.778H70.2222V182.037ZM70.2222 172.556H74.963V177.296H70.2222V172.556ZM70.2222 167.815H74.963V172.556H70.2222V167.815ZM70.2222 163.074H74.963V167.815H70.2222V163.074ZM70.2222 158.333H74.963V163.074H70.2222V158.333ZM70.2222 153.593H74.963V158.333H70.2222V153.593ZM70.2222 148.852H74.963V153.593H70.2222V148.852ZM70.2222 129.889H74.963V134.63H70.2222V129.889ZM70.2222 134.63H74.963V139.37H70.2222V134.63ZM70.2222 139.37H74.963V144.111H70.2222V139.37ZM70.2222 144.111H74.963V148.852H70.2222V144.111ZM70.2222 177.296H74.963V182.037H70.2222V177.296ZM74.963 196.259H79.7037V201H74.963V196.259ZM79.7037 196.259H84.4444V201H79.7037V196.259ZM84.4444 196.259H89.1852V201H84.4444V196.259ZM84.4444 191.519H89.1852V196.259H84.4444V191.519ZM84.4444 186.778H89.1852V191.519H84.4444V186.778ZM79.7037 186.778H84.4444V191.519H79.7037V186.778ZM79.7037 191.519H84.4444V196.259H79.7037V191.519ZM74.963 191.519H79.7037V196.259H74.963V191.519ZM74.963 186.778H79.7037V191.519H74.963V186.778ZM89.1852 186.778H93.9259V191.519H89.1852V186.778ZM89.1852 191.519H93.9259V196.259H89.1852V191.519ZM89.1852 196.259H93.9259V201H89.1852V196.259ZM93.9259 196.259H98.6667V201H93.9259V196.259ZM93.9259 191.519H98.6667V196.259H93.9259V191.519ZM93.9259 186.778H98.6667V191.519H93.9259V186.778ZM98.6667 186.778H103.407V191.519H98.6667V186.778ZM98.6667 191.519H103.407V196.259H98.6667V191.519ZM98.6667 196.259H103.407V201H98.6667V196.259ZM74.963 129.889H79.7037V134.63H74.963V129.889ZM79.7037 129.889H84.4444V134.63H79.7037V129.889ZM84.4444 129.889H89.1852V134.63H84.4444V129.889ZM89.1852 129.889H93.9259V134.63H89.1852V129.889ZM93.9259 129.889H98.6667V134.63H93.9259V129.889ZM98.6667 129.889H103.407V134.63H98.6667V129.889ZM98.6667 134.63H103.407V139.37H98.6667V134.63ZM98.6667 139.37H103.407V144.111H98.6667V139.37ZM93.9259 139.37H98.6667V144.111H93.9259V139.37ZM89.1852 139.37H93.9259V144.111H89.1852V139.37ZM84.4444 139.37H89.1852V144.111H84.4444V139.37ZM79.7037 139.37H84.4444V144.111H79.7037V139.37ZM79.7037 134.63H84.4444V139.37H79.7037V134.63ZM74.963 134.63H79.7037V139.37H74.963V134.63ZM74.963 139.37H79.7037V144.111H74.963V139.37ZM84.4444 134.63H89.1852V139.37H84.4444V134.63ZM89.1852 134.63H93.9259V139.37H89.1852V134.63ZM93.9259 134.63H98.6667V139.37H93.9259V134.63ZM74.963 158.333H79.7037V163.074H74.963V158.333ZM74.963 163.074H79.7037V167.815H74.963V163.074ZM74.963 167.815H79.7037V172.556H74.963V167.815ZM79.7037 167.815H84.4444V172.556H79.7037V167.815ZM79.7037 163.074H84.4444V167.815H79.7037V163.074ZM79.7037 158.333H84.4444V163.074H79.7037V158.333ZM84.4444 158.333H89.1852V163.074H84.4444V158.333ZM84.4444 163.074H89.1852V167.815H84.4444V163.074ZM89.1852 163.074H93.9259V167.815H89.1852V163.074ZM89.1852 158.333H93.9259V163.074H89.1852V158.333ZM89.1852 167.815H93.9259V172.556H89.1852V167.815ZM84.4444 167.815H89.1852V172.556H84.4444V167.815ZM93.9259 158.333H98.6667V163.074H93.9259V158.333ZM93.9259 163.074H98.6667V167.815H93.9259V163.074ZM93.9259 167.815H98.6667V172.556H93.9259V167.815ZM150.792 158.333H155.532V163.074H150.792V158.333ZM150.792 153.593H155.532V158.333H150.792V153.593ZM146.051 158.333H150.792V163.074H146.051V158.333ZM141.31 158.333H146.051V163.074H141.31V158.333ZM141.31 153.593H146.051V158.333H141.31V153.593ZM146.051 153.593H150.792V158.333H146.051V153.593ZM146.051 148.852H150.792V153.593H146.051V148.852ZM141.31 148.852H146.051V153.593H141.31V148.852ZM136.569 148.852H141.31V153.593H136.569V148.852ZM131.829 148.852H136.569V153.593H131.829V148.852ZM127.088 148.852H131.829V153.593H127.088V148.852ZM122.347 148.852H127.088V153.593H122.347V148.852ZM122.347 153.593H127.088V158.333H122.347V153.593ZM127.088 153.593H131.829V158.333H127.088V153.593ZM131.829 153.593H136.569V158.333H131.829V153.593ZM136.569 153.593H141.31V158.333H136.569V153.593ZM117.606 153.593H122.347V158.333H117.606V153.593ZM117.606 158.333H122.347V163.074H117.606V158.333ZM117.606 163.074H122.347V167.815H117.606V163.074ZM122.347 163.074H127.088V167.815H122.347V163.074ZM122.347 158.333H127.088V163.074H122.347V158.333ZM112.866 163.074H117.606V167.815H112.866V163.074ZM112.866 158.333H117.606V163.074H112.866V158.333ZM122.347 167.815H127.088V172.556H122.347V167.815ZM117.606 167.815H122.347V172.556H117.606V167.815ZM122.347 172.556H127.088V177.296H122.347V172.556ZM127.088 172.556H131.829V177.296H127.088V172.556ZM131.829 172.556H136.569V177.296H131.829V172.556ZM131.829 167.815H136.569V172.556H131.829V167.815ZM136.569 167.815H141.31V172.556H136.569V167.815ZM136.569 172.556H141.31V177.296H136.569V172.556ZM141.31 172.556H146.051V177.296H141.31V172.556ZM146.051 172.556H150.792V177.296H146.051V172.556ZM146.051 167.815H150.792V172.556H146.051V167.815ZM141.31 167.815H146.051V172.556H141.31V167.815ZM127.088 167.815H131.829V172.556H127.088V167.815ZM112.866 182.037H117.606V186.778H112.866V182.037ZM112.866 186.778H117.606V191.519H112.866V186.778ZM117.606 182.037H122.347V186.778H117.606V182.037ZM122.347 182.037H127.088V186.778H122.347V182.037ZM122.347 186.778H127.088V191.519H122.347V186.778ZM117.606 186.778H122.347V191.519H117.606V186.778ZM117.606 191.519H122.347V196.259H117.606V191.519ZM122.347 191.519H127.088V196.259H122.347V191.519ZM127.088 191.519H131.829V196.259H127.088V191.519ZM127.088 186.778H131.829V191.519H127.088V186.778ZM122.347 196.259H127.088V201H122.347V196.259ZM127.088 196.259H131.829V201H127.088V196.259ZM131.829 196.259H136.569V201H131.829V196.259ZM136.569 196.259H141.31V201H136.569V196.259ZM141.31 196.259H146.051V201H141.31V196.259ZM136.569 191.519H141.31V196.259H136.569V191.519ZM131.829 191.519H136.569V196.259H131.829V191.519ZM141.31 191.519H146.051V196.259H141.31V191.519ZM146.051 191.519H150.792V196.259H146.051V191.519ZM146.051 196.259H150.792V201H146.051V196.259ZM150.792 191.519H155.532V196.259H150.792V191.519ZM146.051 186.778H150.792V191.519H146.051V186.778ZM141.31 186.778H146.051V191.519H141.31V186.778ZM150.792 186.778H155.532V191.519H150.792V186.778ZM155.532 186.778H160.273V191.519H155.532V186.778ZM155.532 182.037H160.273V186.778H155.532V182.037ZM155.532 177.296H160.273V182.037H155.532V177.296ZM150.792 177.296H155.532V182.037H150.792V177.296ZM150.792 172.556H155.532V177.296H150.792V172.556ZM146.051 177.296H150.792V182.037H146.051V177.296ZM141.31 177.296H146.051V182.037H141.31V177.296ZM146.051 182.037H150.792V186.778H146.051V182.037ZM150.792 182.037H155.532V186.778H150.792V182.037ZM127.088 158.333H131.829V163.074H127.088V158.333ZM179.222 148.852H183.963V153.593H179.222V148.852ZM183.963 148.852H188.704V153.593H183.963V148.852ZM188.704 148.852H193.444V153.593H188.704V148.852ZM193.444 148.852H198.185V153.593H193.444V148.852ZM198.185 148.852H202.926V153.593H198.185V148.852ZM202.926 148.852H207.667V153.593H202.926V148.852ZM207.667 153.593H212.407V158.333H207.667V153.593ZM202.926 153.593H207.667V158.333H202.926V153.593ZM198.185 153.593H202.926V158.333H198.185V153.593ZM193.444 153.593H198.185V158.333H193.444V153.593ZM188.704 153.593H193.444V158.333H188.704V153.593ZM183.963 153.593H188.704V158.333H183.963V153.593ZM179.222 153.593H183.963V158.333H179.222V153.593ZM174.481 153.593H179.222V158.333H174.481V153.593ZM174.481 158.333H179.222V163.074H174.481V158.333ZM179.222 158.333H183.963V163.074H179.222V158.333ZM169.741 158.333H174.481V163.074H169.741V158.333ZM169.741 163.074H174.481V167.815H169.741V163.074ZM169.741 167.815H174.481V172.556H169.741V167.815ZM174.481 167.815H179.222V172.556H174.481V167.815ZM179.222 167.815H183.963V172.556H179.222V167.815ZM179.222 163.074H183.963V167.815H179.222V163.074ZM174.481 163.074H179.222V167.815H174.481V163.074ZM174.481 172.556H179.222V177.296H174.481V172.556ZM174.481 177.296H179.222V182.037H174.481V177.296ZM174.481 182.037H179.222V186.778H174.481V182.037ZM169.741 182.037H174.481V186.778H169.741V182.037ZM169.741 186.778H174.481V191.519H169.741V186.778ZM169.741 177.296H174.481V182.037H169.741V177.296ZM169.741 172.556H174.481V177.296H169.741V172.556ZM179.222 172.556H183.963V177.296H179.222V172.556ZM179.222 177.296H183.963V182.037H179.222V177.296ZM179.222 182.037H183.963V186.778H179.222V182.037ZM179.222 186.778H183.963V191.519H179.222V186.778ZM174.481 186.778H179.222V191.519H174.481V186.778ZM174.481 191.519H179.222V196.259H174.481V191.519ZM179.222 191.519H183.963V196.259H179.222V191.519ZM183.963 191.519H188.704V196.259H183.963V191.519ZM183.963 186.778H188.704V191.519H183.963V186.778ZM179.222 196.259H183.963V201H179.222V196.259ZM183.963 196.259H188.704V201H183.963V196.259ZM188.704 196.259H193.444V201H188.704V196.259ZM193.444 196.259H198.185V201H193.444V196.259ZM198.185 196.259H202.926V201H198.185V196.259ZM202.926 196.259H207.667V201H202.926V196.259ZM198.185 191.519H202.926V196.259H198.185V191.519ZM193.444 191.519H198.185V196.259H193.444V191.519ZM188.704 191.519H193.444V196.259H188.704V191.519ZM202.926 191.519H207.667V196.259H202.926V191.519ZM207.667 191.519H212.407V196.259H207.667V191.519ZM202.926 186.778H207.667V191.519H202.926V186.778ZM198.185 186.778H202.926V191.519H198.185V186.778ZM207.667 186.778H212.407V191.519H207.667V186.778ZM212.407 186.778H217.148V191.519H212.407V186.778ZM212.407 182.037H217.148V186.778H212.407V182.037ZM207.667 182.037H212.407V186.778H207.667V182.037ZM202.926 182.037H207.667V186.778H202.926V182.037ZM207.667 163.074H212.407V167.815H207.667V163.074ZM212.407 163.074H217.148V167.815H212.407V163.074ZM212.407 158.333H217.148V163.074H212.407V158.333ZM202.926 163.074H207.667V167.815H202.926V163.074ZM202.926 158.333H207.667V163.074H202.926V158.333ZM198.185 158.333H202.926V163.074H198.185V158.333ZM207.667 158.333H212.407V163.074H207.667V158.333ZM183.963 158.333H188.704V163.074H183.963V158.333ZM188.704 158.333H193.444V163.074H188.704V158.333ZM193.444 158.333H198.185V163.074H193.444V158.333ZM188.704 186.778H193.444V191.519H188.704V186.778ZM193.444 186.778H198.185V191.519H193.444V186.778ZM264.542 201H259.801V196.259H264.542V201ZM255.06 201H250.319V196.259H255.06V201ZM250.319 201H245.579V196.259H250.319V201ZM245.579 201H240.838V196.259H245.579V201ZM240.838 201H236.097V196.259H240.838V201ZM236.097 196.259H231.356V191.519H236.097V196.259ZM240.838 196.259H236.097V191.519H240.838V196.259ZM245.579 196.259H240.838V191.519H245.579V196.259ZM250.319 196.259H245.579V191.519H250.319V196.259ZM255.06 196.259H250.319V191.519H255.06V196.259ZM259.801 196.259H255.06V191.519H259.801V196.259ZM264.542 196.259H259.801V191.519H264.542V196.259ZM269.282 196.259H264.542V191.519H269.282V196.259ZM269.282 191.519H264.542V186.778H269.282V191.519ZM264.542 191.519H259.801V186.778H264.542V191.519ZM274.023 191.519H269.282V186.778H274.023V191.519ZM274.023 186.778H269.282V182.037H274.023V186.778ZM274.023 182.037H269.282V177.296H274.023V182.037ZM269.282 182.037H264.542V177.296H269.282V182.037ZM264.542 182.037H259.801V177.296H264.542V182.037ZM264.542 186.778H259.801V182.037H264.542V186.778ZM269.282 186.778H264.542V182.037H269.282V186.778ZM269.282 177.296H264.542V172.556H269.282V177.296ZM269.282 172.556H264.542V167.815H269.282V172.556ZM269.282 167.815H264.542V163.074H269.282V167.815ZM274.023 167.815H269.282V163.074H274.023V167.815ZM274.023 163.074H269.282V158.333H274.023V163.074ZM274.023 172.556H269.282V167.815H274.023V172.556ZM274.023 177.296H269.282V172.556H274.023V177.296ZM264.542 177.296H259.801V172.556H264.542V177.296ZM264.542 172.556H259.801V167.815H264.542V172.556ZM264.542 167.815H259.801V163.074H264.542V167.815ZM264.542 163.074H259.801V158.333H264.542V163.074ZM269.282 163.074H264.542V158.333H269.282V163.074ZM269.282 158.333H264.542V153.593H269.282V158.333ZM264.542 158.333H259.801V153.593H264.542V158.333ZM259.801 158.333H255.06V153.593H259.801V158.333ZM259.801 163.074H255.06V158.333H259.801V163.074ZM264.542 153.593H259.801V148.852H264.542V153.593ZM259.801 153.593H255.06V148.852H259.801V153.593ZM255.06 153.593H250.319V148.852H255.06V153.593ZM250.319 153.593H245.579V148.852H250.319V153.593ZM245.579 153.593H240.838V148.852H245.579V153.593ZM240.838 153.593H236.097V148.852H240.838V153.593ZM245.579 158.333H240.838V153.593H245.579V158.333ZM250.319 158.333H245.579V153.593H250.319V158.333ZM255.06 158.333H250.319V153.593H255.06V158.333ZM240.838 158.333H236.097V153.593H240.838V158.333ZM236.097 158.333H231.356V153.593H236.097V158.333ZM240.838 163.074H236.097V158.333H240.838V163.074ZM245.579 163.074H240.838V158.333H245.579V163.074ZM236.097 163.074H231.356V158.333H236.097V163.074ZM231.356 163.074H226.616V158.333H231.356V163.074ZM236.097 186.778H231.356V182.037H236.097V186.778ZM231.356 186.778H226.616V182.037H231.356V186.778ZM231.356 191.519H226.616V186.778H231.356V191.519ZM240.838 186.778H236.097V182.037H240.838V186.778ZM240.838 191.519H236.097V186.778H240.838V191.519ZM236.097 191.519H231.356V186.778H236.097V191.519ZM255.06 163.074H250.319V158.333H255.06V163.074ZM250.319 163.074H245.579V158.333H250.319V163.074ZM236.097 182.037H231.356V177.296H236.097V182.037ZM240.838 182.037H236.097V177.296H240.838V182.037ZM255.06 177.296H250.319V172.556H255.06V177.296ZM250.319 177.296H245.579V172.556H250.319V177.296ZM245.579 177.296H240.838V172.556H245.579V177.296ZM240.838 177.296H236.097V172.556H240.838V177.296ZM259.801 177.296H255.06V172.556H259.801V177.296ZM269.282 191.519H274.023V196.259H269.282V191.519ZM269.282 196.259H274.023V201H269.282V196.259ZM264.542 196.259H269.282V201H264.542V196.259ZM255.06 167.815H259.801V172.556H255.06V167.815ZM250.319 167.815H255.06V172.556H250.319V167.815ZM245.579 167.815H250.319V172.556H245.579V167.815ZM240.838 167.815H245.579V172.556H240.838V167.815ZM236.097 167.815H240.838V172.556H236.097V167.815ZM231.356 172.556H236.097V177.296H231.356V172.556ZM226.616 177.296H231.356V182.037H226.616V177.296ZM240.838 186.778H245.579V191.519H240.838V186.778ZM245.579 186.778H250.319V191.519H245.579V186.778ZM250.319 186.778H255.06V191.519H250.319V186.778ZM255.06 186.778H259.801V191.519H255.06V186.778ZM283.491 148.852H288.231V153.593H283.491V148.852ZM283.491 153.593H288.231V158.333H283.491V153.593ZM283.491 191.519H288.231V196.259H283.491V191.519ZM283.491 196.259H288.231V201H283.491V196.259ZM288.231 196.259H292.972V201H288.231V196.259ZM288.231 148.852H292.972V153.593H288.231V148.852ZM302.454 148.852H307.194V153.593H302.454V148.852ZM307.194 148.852H311.935V153.593H307.194V148.852ZM311.935 148.852H316.676V153.593H311.935V148.852ZM316.676 148.852H321.417V153.593H316.676V148.852ZM321.417 153.593H326.157V158.333H321.417V153.593ZM316.676 153.593H321.417V158.333H316.676V153.593ZM311.935 153.593H316.676V158.333H311.935V153.593ZM307.194 153.593H311.935V158.333H307.194V153.593ZM302.454 153.593H307.194V158.333H302.454V153.593ZM297.713 153.593H302.454V158.333H297.713V153.593ZM288.231 153.593H292.972V158.333H288.231V153.593ZM292.972 182.037H297.713V186.778H292.972V182.037ZM297.713 191.519H302.454V196.259H297.713V191.519ZM297.713 186.778H302.454V191.519H297.713V186.778ZM297.713 196.259H302.454V201H297.713V196.259ZM302.454 196.259H307.194V201H302.454V196.259ZM307.194 196.259H311.935V201H307.194V196.259ZM311.935 196.259H316.676V201H311.935V196.259ZM316.676 196.259H321.417V201H316.676V196.259ZM311.935 191.519H316.676V196.259H311.935V191.519ZM307.194 191.519H311.935V196.259H307.194V191.519ZM302.454 191.519H307.194V196.259H302.454V191.519ZM316.676 191.519H321.417V196.259H316.676V191.519ZM321.417 191.519H326.157V196.259H321.417V191.519ZM316.676 186.778H321.417V191.519H316.676V186.778ZM311.935 186.778H316.676V191.519H311.935V186.778ZM321.417 186.778H326.157V191.519H321.417V186.778ZM326.157 186.778H330.898V191.519H326.157V186.778ZM326.157 182.037H330.898V186.778H326.157V182.037ZM321.417 177.296H326.157V182.037H321.417V177.296ZM321.417 182.037H326.157V186.778H321.417V182.037ZM316.676 182.037H321.417V186.778H316.676V182.037ZM326.157 177.296H330.898V182.037H326.157V177.296ZM326.157 172.556H330.898V177.296H326.157V172.556ZM321.417 172.556H326.157V177.296H321.417V172.556ZM321.417 167.815H326.157V172.556H321.417V167.815ZM321.417 163.074H326.157V167.815H321.417V163.074ZM326.157 163.074H330.898V167.815H326.157V163.074ZM326.157 158.333H330.898V163.074H326.157V158.333ZM326.157 167.815H330.898V172.556H326.157V167.815ZM316.676 172.556H321.417V177.296H316.676V172.556ZM316.676 177.296H321.417V182.037H316.676V177.296ZM316.676 167.815H321.417V172.556H316.676V167.815ZM316.676 163.074H321.417V167.815H316.676V163.074ZM316.676 158.333H321.417V163.074H316.676V158.333ZM311.935 158.333H316.676V163.074H311.935V158.333ZM321.417 158.333H326.157V163.074H321.417V158.333ZM297.713 158.333H302.454V163.074H297.713V158.333ZM302.454 158.333H307.194V163.074H302.454V158.333ZM307.194 158.333H311.935V163.074H307.194V158.333ZM302.454 186.778H307.194V191.519H302.454V186.778ZM307.194 186.778H311.935V191.519H307.194V186.778ZM292.972 196.259H297.713V201H292.972V196.259ZM292.972 191.519H297.713V196.259H292.972V191.519ZM292.972 186.778H297.713V191.519H292.972V186.778ZM288.231 186.778H292.972V191.519H288.231V186.778ZM288.231 191.519H292.972V196.259H288.231V191.519ZM288.231 182.037H292.972V186.778H288.231V182.037ZM292.972 177.296H297.713V182.037H292.972V177.296ZM292.972 172.556H297.713V177.296H292.972V172.556ZM292.972 167.815H297.713V172.556H292.972V167.815ZM292.972 163.074H297.713V167.815H292.972V163.074ZM292.972 158.333H297.713V163.074H292.972V158.333ZM292.972 153.593H297.713V158.333H292.972V153.593ZM292.972 148.852H297.713V153.593H292.972V148.852ZM288.231 158.333H292.972V163.074H288.231V158.333ZM288.231 163.074H292.972V167.815H288.231V163.074ZM288.231 167.815H292.972V172.556H288.231V167.815ZM288.231 172.556H292.972V177.296H288.231V172.556ZM288.231 177.296H292.972V182.037H288.231V177.296ZM283.491 182.037H288.231V186.778H283.491V182.037ZM283.491 186.778H288.231V191.519H283.491V186.778ZM283.491 177.296H288.231V182.037H283.491V177.296ZM283.491 172.556H288.231V177.296H283.491V172.556ZM283.491 167.815H288.231V172.556H283.491V167.815ZM283.491 163.074H288.231V167.815H283.491V163.074ZM283.491 158.333H288.231V163.074H283.491V158.333ZM297.713 163.074H302.454V167.815H297.713V163.074ZM283.491 201H288.231V205.741H283.491V201ZM288.231 201H292.972V205.741H288.231V201ZM292.972 201H297.713V205.741H292.972V201ZM292.972 205.741H297.713V210.481H292.972V205.741ZM292.972 210.481H297.713V215.222H292.972V210.481ZM288.231 210.481H292.972V215.222H288.231V210.481ZM283.491 210.481H288.231V215.222H283.491V210.481ZM288.231 205.741H292.972V210.481H288.231V205.741ZM283.491 205.741H288.231V210.481H283.491V205.741ZM283.491 215.222H288.231V219.963H283.491V215.222ZM288.231 215.222H292.972V219.963H288.231V215.222ZM292.972 215.222H297.713V219.963H292.972V215.222ZM349.847 148.852H354.588V153.593H349.847V148.852ZM354.588 148.852H359.329V153.593H354.588V148.852ZM359.329 148.852H364.069V153.593H359.329V148.852ZM364.069 148.852H368.81V153.593H364.069V148.852ZM368.81 148.852H373.551V153.593H368.81V148.852ZM373.551 148.852H378.292V153.593H373.551V148.852ZM378.292 153.593H383.032V158.333H378.292V153.593ZM373.551 153.593H378.292V158.333H373.551V153.593ZM368.81 153.593H373.551V158.333H368.81V153.593ZM364.069 153.593H368.81V158.333H364.069V153.593ZM359.329 153.593H364.069V158.333H359.329V153.593ZM354.588 153.593H359.329V158.333H354.588V153.593ZM349.847 153.593H354.588V158.333H349.847V153.593ZM345.106 153.593H349.847V158.333H345.106V153.593ZM345.106 158.333H349.847V163.074H345.106V158.333ZM349.847 158.333H354.588V163.074H349.847V158.333ZM340.366 158.333H345.106V163.074H340.366V158.333ZM340.366 163.074H345.106V167.815H340.366V163.074ZM340.366 167.815H345.106V172.556H340.366V167.815ZM345.106 167.815H349.847V172.556H345.106V167.815ZM349.847 167.815H354.588V172.556H349.847V167.815ZM349.847 163.074H354.588V167.815H349.847V163.074ZM345.106 163.074H349.847V167.815H345.106V163.074ZM345.106 172.556H349.847V177.296H345.106V172.556ZM345.106 177.296H349.847V182.037H345.106V177.296ZM345.106 182.037H349.847V186.778H345.106V182.037ZM340.366 182.037H345.106V186.778H340.366V182.037ZM340.366 186.778H345.106V191.519H340.366V186.778ZM340.366 177.296H345.106V182.037H340.366V177.296ZM340.366 172.556H345.106V177.296H340.366V172.556ZM349.847 172.556H354.588V177.296H349.847V172.556ZM349.847 177.296H354.588V182.037H349.847V177.296ZM349.847 182.037H354.588V186.778H349.847V182.037ZM349.847 186.778H354.588V191.519H349.847V186.778ZM345.106 186.778H349.847V191.519H345.106V186.778ZM345.106 191.519H349.847V196.259H345.106V191.519ZM349.847 191.519H354.588V196.259H349.847V191.519ZM354.588 191.519H359.329V196.259H354.588V191.519ZM354.588 186.778H359.329V191.519H354.588V186.778ZM349.847 196.259H354.588V201H349.847V196.259ZM354.588 196.259H359.329V201H354.588V196.259ZM359.329 196.259H364.069V201H359.329V196.259ZM364.069 196.259H368.81V201H364.069V196.259ZM368.81 196.259H373.551V201H368.81V196.259ZM373.551 196.259H378.292V201H373.551V196.259ZM368.81 191.519H373.551V196.259H368.81V191.519ZM364.069 191.519H368.81V196.259H364.069V191.519ZM359.329 191.519H364.069V196.259H359.329V191.519ZM373.551 191.519H378.292V196.259H373.551V191.519ZM378.292 191.519H383.032V196.259H378.292V191.519ZM373.551 186.778H378.292V191.519H373.551V186.778ZM368.81 186.778H373.551V191.519H368.81V186.778ZM378.292 186.778H383.032V191.519H378.292V186.778ZM383.032 186.778H387.773V191.519H383.032V186.778ZM378.292 163.074H383.032V167.815H378.292V163.074ZM383.032 163.074H387.773V167.815H383.032V163.074ZM383.032 158.333H387.773V163.074H383.032V158.333ZM373.551 163.074H378.292V167.815H373.551V163.074ZM373.551 158.333H378.292V163.074H373.551V158.333ZM378.292 158.333H383.032V163.074H378.292V158.333ZM359.329 186.778H364.069V191.519H359.329V186.778ZM364.069 186.778H368.81V191.519H364.069V186.778ZM383.032 167.815H387.773V172.556H383.032V167.815ZM378.292 167.815H383.032V172.556H378.292V167.815ZM373.551 167.815H378.292V172.556H373.551V167.815ZM359.329 172.556H364.069V177.296H359.329V172.556ZM364.069 172.556H368.81V177.296H364.069V172.556ZM368.81 172.556H373.551V177.296H368.81V172.556ZM373.551 172.556H378.292V177.296H373.551V172.556ZM378.292 172.556H383.032V177.296H378.292V172.556ZM383.032 172.556H387.773V177.296H383.032V172.556ZM354.588 172.556H359.329V177.296H354.588V172.556ZM354.588 158.333H359.329V163.074H354.588V158.333ZM359.329 158.333H364.069V163.074H359.329V158.333ZM364.069 158.333H368.81V163.074H364.069V158.333ZM368.81 158.333H373.551V163.074H368.81V158.333ZM383.032 177.296H387.773V182.037H383.032V177.296ZM378.292 177.296H383.032V182.037H378.292V177.296ZM368.81 177.296H373.551V182.037H368.81V177.296ZM364.069 177.296H368.81V182.037H364.069V177.296ZM359.329 177.296H364.069V182.037H359.329V177.296ZM354.588 177.296H359.329V182.037H354.588V177.296ZM373.551 177.296H378.292V182.037H373.551V177.296Z" fill="black"/>
<path d="M235.5 72.5C226.7 106.5 236.5 117.667 242.5 119H296.5C307.095 119 312.5 102.5 305 72.5C296.2 37.2997 283.167 59.8333 282 72.5H262C256.833 58.3333 244.429 38 235.5 72.5Z" fill="black"/>
</svg>
